<?xml version="1.0" standalone="no"?>
<!DOCTYPE svg PUBLIC "-//W3C//DTD SVG 20010904//EN"
 "http://www.w3.org/TR/2001/REC-SVG-20010904/DTD/svg10.dtd">
<svg version="1.0" xmlns="http://www.w3.org/2000/svg"
 width="48.000000pt" height="52.000000pt" viewBox="0 0 48.000000 52.000000"
 preserveAspectRatio="xMidYMid meet">

<g transform="translate(0.000000,52.000000) scale(0.100000,-0.100000)"
fill="#000000" stroke="none">
<path d="M334 369 l-120 -120 -64 80 c-56 73 -66 81 -96 81 l-34 0 0 -200 0
-200 24 0 c29 0 119 110 110 134 -8 22 -13 20 -46 -11 l-28 -27 0 115 0 114
65 -98 c36 -53 69 -97 74 -97 5 0 46 55 93 123 131 189 150 218 146 222 -2 2
-58 -50 -124 -116z"/>
<path d="M381 296 c-18 -29 -21 -49 -21 -160 l0 -126 25 0 25 0 0 160 c0 88
-2 160 -4 160 -2 0 -14 -15 -25 -34z"/>
</g>
</svg>
